<svg width="44" height="44" viewBox="0 0 44 44" fill="none" xmlns="http://www.w3.org/2000/svg">
<rect x="0.25" y="0.25" width="43.5" height="43.5" rx="21.75" fill="white"/>
<rect x="0.25" y="0.25" width="43.5" height="43.5" rx="21.75" stroke="#AAAAAA" stroke-width="0.5"/>
<path d="M31.5388 12.503C31.0654 12.0296 30.3257 12.0296 29.8524 12.503L21.1246 21.2308C20.6512 21.7042 20.6512 22.4438 21.1246 22.9172L29.8524 31.645C30.0891 31.8817 30.3849 32 30.6808 32C30.9766 32 31.2725 31.8817 31.5092 31.645C31.9825 31.1716 31.9825 30.432 31.5092 29.9586L23.6394 22.0592L31.5388 14.1598C31.9825 13.716 31.9825 12.9468 31.5388 12.503Z" fill="black"/>
<path d="M12.4632 12.355C12.9366 11.8817 13.6762 11.8817 14.1496 12.355L22.8774 21.0828C23.3508 21.5562 23.3508 22.2959 22.8774 22.7692L14.1496 31.497C13.9129 31.7337 13.617 31.8521 13.3212 31.8521C13.0253 31.8521 12.7295 31.7337 12.4928 31.497C12.0194 31.0237 12.0194 30.284 12.4928 29.8106L20.3626 21.9112L12.4632 14.0118C12.0194 13.568 12.0194 12.7988 12.4632 12.355Z" fill="black"/>
</svg>
