<svg width="44" height="44" viewBox="0 0 44 44" fill="none" xmlns="http://www.w3.org/2000/svg">
<rect x="0.25" y="0.25" width="43.5" height="43.5" rx="21.75" fill="white"/>
<rect x="0.25" y="0.25" width="43.5" height="43.5" rx="21.75" fill="black"/>
<rect x="0.25" y="0.25" width="43.5" height="43.5" rx="21.75" stroke="black" stroke-width="0.5"/>
<path d="M31.9965 16.951C32.0012 16.8788 32.0012 16.8065 31.9965 16.7343C31.9996 16.7094 31.9996 16.6842 31.9965 16.6593C31.9567 16.5684 31.9033 16.4842 31.8382 16.4094L26.0059 10.5771C25.9311 10.5119 25.8468 10.4585 25.7559 10.4188H25.6809C25.5865 10.3739 25.485 10.3458 25.381 10.3354H14.4996C13.8366 10.3354 13.2009 10.5988 12.7321 11.0676C12.2633 11.5363 12 12.1721 12 12.835V31.1651C12 31.828 12.2633 32.4638 12.7321 32.9326C13.2009 33.4013 13.8366 33.6647 14.4996 33.6647H29.4969C30.1598 33.6647 30.7956 33.4013 31.2644 32.9326C31.7331 32.4638 31.9965 31.828 31.9965 31.1651V17.0009C31.9965 17.0009 31.9965 17.0009 31.9965 16.951ZM29.1553 16.1678H26.9974C26.7764 16.1678 26.5645 16.08 26.4082 15.9237C26.252 15.7675 26.1642 15.5555 26.1642 15.3346V13.1766L29.1553 16.1678ZM29.4969 31.9983H14.4996C14.2786 31.9983 14.0667 31.9105 13.9104 31.7543C13.7542 31.598 13.6664 31.3861 13.6664 31.1651V12.835C13.6664 12.614 13.7542 12.4021 13.9104 12.2459C14.0667 12.0896 14.2786 12.0018 14.4996 12.0018H24.4978V15.3346C24.4978 15.9975 24.7611 16.6333 25.2299 17.102C25.6987 17.5708 26.3344 17.8341 26.9974 17.8341H30.3301V31.1651C30.3301 31.3861 30.2423 31.598 30.0861 31.7543C29.9298 31.9105 29.7179 31.9983 29.4969 31.9983Z" fill="white"/>
<path d="M17.8332 22.0001H24.4987C24.7197 22.0001 24.9316 21.9123 25.0878 21.7561C25.2441 21.5998 25.3319 21.3879 25.3319 21.1669C25.3319 20.946 25.2441 20.734 25.0878 20.5778C24.9316 20.4215 24.7197 20.3337 24.4987 20.3337H17.8332C17.6122 20.3337 17.4003 20.4215 17.244 20.5778C17.0878 20.734 17 20.946 17 21.1669C17 21.3879 17.0878 21.5998 17.244 21.7561C17.4003 21.9123 17.6122 22.0001 17.8332 22.0001Z" fill="white"/>
<path d="M26.1651 23.6664H17.8332C17.6122 23.6664 17.4003 23.7542 17.244 23.9104C17.0878 24.0667 17 24.2786 17 24.4996C17 24.7205 17.0878 24.9325 17.244 25.0887C17.4003 25.245 17.6122 25.3328 17.8332 25.3328H26.1651C26.386 25.3328 26.598 25.245 26.7542 25.0887C26.9105 24.9325 26.9982 24.7205 26.9982 24.4996C26.9982 24.2786 26.9105 24.0667 26.7542 23.9104C26.598 23.7542 26.386 23.6664 26.1651 23.6664Z" fill="white"/>
<path d="M25.3319 26.9991H17.8332C17.6122 26.9991 17.4003 27.0869 17.244 27.2432C17.0878 27.3994 17 27.6114 17 27.8323C17 28.0533 17.0878 28.2652 17.244 28.4215C17.4003 28.5777 17.6122 28.6655 17.8332 28.6655H25.3319C25.5528 28.6655 25.7648 28.5777 25.921 28.4215C26.0773 28.2652 26.1651 28.0533 26.1651 27.8323C26.1651 27.6114 26.0773 27.3994 25.921 27.2432C25.7648 27.0869 25.5528 26.9991 25.3319 26.9991Z" fill="white"/>
</svg>